<?xml version="1.0" standalone="no"?><!DOCTYPE svg PUBLIC "-//W3C//DTD SVG 1.1//EN" "http://www.w3.org/Graphics/SVG/1.1/DTD/svg11.dtd"><svg t="1618923712287" class="icon" viewBox="0 0 1024 1024" version="1.1" xmlns="http://www.w3.org/2000/svg" p-id="3020" xmlns:xlink="http://www.w3.org/1999/xlink" width="200" height="200"><defs><style type="text/css"></style></defs><path d="M420.864 656.270222H285.582222c-36.295111 0-65.763556 29.354667-65.763555 65.536v134.599111c0 36.181333 29.468444 65.536 65.763555 65.536h135.395556c36.295111 0 65.763556-29.354667 65.763555-65.536V721.806222c-0.113778-36.067556-29.582222-65.536-65.877333-65.536z" fill="#ffffff" p-id="3021"></path><path d="M786.432 793.6m-127.772444 0a127.772444 127.772444 0 1 0 255.544888 0 127.772444 127.772444 0 1 0-255.544888 0Z" fill="#ffffff" p-id="3022"></path><path d="M833.877333 507.790222c36.295111 0 65.763556-29.354667 65.763556-65.536V307.541333c0-36.181333-29.468444-65.536-65.763556-65.536H698.595556c-36.295111 0-65.763556 29.354667-65.763556 65.536v134.599111c0 36.181333 29.468444 65.536 65.763556 65.536h135.281777zM420.864 244.963556H285.582222c-36.295111 0-65.763556 29.354667-65.763555 65.536v134.599111c0 36.181333 29.468444 65.536 65.763555 65.536h135.395556c36.295111 0 65.763556-29.354667 65.763555-65.536V310.499556c-0.113778-36.181333-29.582222-65.536-65.877333-65.536z" fill="#ffffff" p-id="3023"></path><path d="M590.961778 485.717333h195.128889c22.186667 0 43.349333-8.874667 59.847111-24.917333l0.113778 0.113778c17.294222-15.018667 26.737778-36.977778 26.737777-61.667556V203.889778c0-22.186667-8.988444-43.576889-25.372444-60.302222-15.018667-16.952889-36.750222-26.282667-61.326222-26.282667H590.961778c-24.234667 0-45.852444 9.102222-60.871111 25.827555-16.611556 15.018667-25.827556 36.636444-25.827556 60.871112v195.128888c0 22.414222 8.988444 43.804444 25.372445 60.416 15.132444 16.839111 36.864 26.168889 61.326222 26.168889z m198.997333-293.774222c0.455111 0.113778 0.796444 0.227556 1.137778 0.341333l0.910222 0.455112 0.568889 0.682666 1.024 1.024c1.592889 1.592889 3.185778 5.347556 3.185778 9.329778v195.128889c0 5.461333-1.024 7.509333-1.365334 7.850667l-0.910222 0.682666-0.796444 0.796445c-1.592889 1.592889-5.347556 3.185778-9.329778 3.185777h-193.422222c-3.527111 0-7.054222-1.365333-8.988445-2.844444-2.958222-4.437333-3.527111-7.054222-3.527111-9.557333V203.889778c0-2.161778 0.455111-4.778667 3.413334-9.329778 4.209778-2.844444 6.826667-3.299556 9.102222-3.299556h194.56c0.796444 0 1.706667 0.113778 2.730666 0.113778h0.568889c0.227556 0.341333 0.682667 0.455111 1.137778 0.568889zM185.344 485.717333h195.128889c24.234667 0 45.852444-9.102222 60.871111-25.827555 16.611556-15.018667 25.827556-36.636444 25.827556-60.871111V203.889778c0-22.186667-8.988444-43.576889-25.372445-60.302222-15.018667-16.952889-36.750222-26.282667-61.326222-26.282667H185.344c-22.414222 0-43.804444 8.988444-60.416 25.486222-16.952889 15.132444-26.168889 36.864-26.168889 61.212445v195.128888c0 22.414222 8.988444 43.804444 25.372445 60.416 15.018667 16.839111 36.750222 26.168889 61.212444 26.168889z m0-74.069333c-3.413333 0-6.826667-1.365333-8.760889-2.730667-3.299556-4.551111-3.754667-7.395556-3.754667-9.784889V203.889778c0-2.161778 0.455111-4.778667 3.527112-9.443556 3.982222-2.616889 6.485333-3.185778 8.988444-3.185778h195.128889c3.413333 0 6.826667 1.365333 8.760889 2.730667 3.299556 4.664889 3.754667 7.395556 3.754666 9.784889v195.128889c0 3.413333-1.365333 6.826667-2.730666 8.760889-4.664889 3.299556-7.395556 3.754667-9.784889 3.754666H185.344zM899.299556 848.554667l-0.113778-0.568889c-2.844444-8.419556-8.988444-14.791111-12.970667-18.887111l-1.251555-1.251556-1.365334-1.365333-30.037333-20.366222c13.994667-25.827556 21.048889-54.499556 21.048889-85.333334 0-48.241778-20.024889-95.914667-54.840889-130.844444-33.792-35.612444-80.327111-55.182222-131.185778-55.182222-48.241778 0-95.914667 20.024889-130.844444 54.840888-35.612444 33.792-55.182222 80.327111-55.182223 131.185778 0 48.241778 20.024889 95.914667 54.840889 130.844445 33.792 35.612444 80.327111 55.182222 131.185778 55.182222 42.211556 0 83.512889-15.132444 117.532445-42.894222l32.199111 21.504 0.682666 0.455111c1.024 0.568889 1.820444 1.024 2.616889 1.592889 0.682667 0.455111 1.365333 0.910222 2.161778 1.365333 6.712889 4.209778 18.432 7.736889 27.306667 6.599111 7.623111-1.024 17.180444-3.527111 24.462222-14.677333l0.910222-1.365334 0.682667-1.479111c4.209778-10.24 5.006222-20.024889 2.161778-29.354666z m-131.754667-47.786667c-22.414222 20.48-50.403556 31.857778-79.075556 31.857778-29.468444 0-59.050667-12.060444-79.416889-32.199111-20.707556-22.186667-32.199111-50.289778-32.426666-78.848v-0.910223c0-29.468444 12.060444-59.050667 32.199111-79.303111 22.641778-21.048889 50.972444-32.540444 79.758222-32.540444 28.558222 0 55.523556 10.695111 78.051556 30.947555 19.797333 21.504 31.971556 53.816889 31.971555 84.423112 0.227556 28.558222-10.922667 55.751111-31.061333 76.572444z m90.794667 91.022222h-1.024l1.024-5.688889v5.688889zM443.050667 562.403556c-16.611556-16.611556-38.229333-25.827556-60.871111-25.827556h-196.835556c-22.414222 0-43.804444 8.988444-60.416 25.372444-16.952889 15.018667-26.282667 36.750222-26.282667 61.212445v195.128889c0 24.234667 9.102222 45.852444 25.827556 60.871111 15.018667 16.611556 36.636444 25.827556 60.871111 25.827555h195.128889c18.545778 0 35.726222-5.575111 49.720889-16.042666 3.868444-2.616889 7.850667-5.575111 11.719111-8.874667l0.568889-0.455111 0.568889-0.568889c17.408-17.408 25.827556-37.319111 25.827555-60.871111V623.160889c0-21.959111-9.329778-44.145778-25.827555-60.757333z m-270.222223 60.757333c0-3.413333 1.365333-6.826667 2.730667-8.760889 4.664889-3.299556 7.395556-3.754667 9.784889-3.754667h195.128889c3.413333 0 6.826667 1.365333 8.760889 2.730667 3.299556 4.551111 3.754667 7.395556 3.754666 9.784889v195.128889c0 3.413333-1.365333 6.826667-2.730666 8.760889-4.664889 3.299556-7.395556 3.754667-9.784889 3.754666H185.344c-3.413333 0-6.826667-1.365333-8.760889-2.730666-3.299556-4.551111-3.754667-7.395556-3.754667-9.784889V623.160889z" fill="#333333" p-id="3024"></path></svg>