<?xml version="1.0" standalone="no"?><!DOCTYPE svg PUBLIC "-//W3C//DTD SVG 1.1//EN" "http://www.w3.org/Graphics/SVG/1.1/DTD/svg11.dtd"><svg t="1618923742529" class="icon" viewBox="0 0 1024 1024" version="1.1" xmlns="http://www.w3.org/2000/svg" p-id="3152" xmlns:xlink="http://www.w3.org/1999/xlink" width="200" height="200"><defs><style type="text/css"></style></defs><path d="M2090.6666665 879.8848C2090.6666665 959.488 2026.1418665 1024 1946.5386665 1024H1210.7818665C1131.1914665 1024 1066.6666665 959.488 1066.6666665 879.8848V144.1152C1066.6666665 64.5248 1131.1914665 0 1210.7818665 0H1946.5386665C2026.1418665 0 2090.6666665 64.5248 2090.6666665 144.1152v735.7696z" fill="#FFFFFF" p-id="3153"></path><path d="M378.0608 104.9088H195.968c-50.2016 0-91.0464 40.8448-91.0464 91.0592v182.1056c0 50.2016 40.8448 91.0464 91.0464 91.0464h182.1056a91.136 91.136 0 0 0 91.0464-91.0464V195.968c-0.0128-50.2144-40.8448-91.0592-91.0592-91.0592z m30.3616 273.1648a30.3872 30.3872 0 0 1-30.3616 30.3488H195.968a30.3744 30.3744 0 0 1-30.3488-30.3488V195.968a30.3744 30.3744 0 0 1 30.3488-30.3488h182.1056a30.3872 30.3872 0 0 1 30.3616 30.3488v182.1056z m0 0M378.0608 529.8176H195.968c-50.2016 0-91.0464 40.8448-91.0464 91.0464v182.1056c0 50.2272 40.8448 91.072 91.0464 91.072h182.1056c50.2144 0 91.0464-40.8448 91.0464-91.072V620.864c-0.0128-50.2016-40.8448-91.0464-91.0592-91.0464z m30.3616 273.1392a30.3744 30.3744 0 0 1-30.3616 30.3488H195.968a30.3744 30.3744 0 0 1-30.3488-30.3488V620.864a30.3872 30.3872 0 0 1 30.3488-30.3488h182.1056a30.3872 30.3872 0 0 1 30.3616 30.3488v182.0928z m0 0M620.8768 469.9136h182.1056c50.2016 0 91.0464-40.8448 91.0464-91.0464V196.7744a91.136 91.136 0 0 0-91.0464-91.0464H620.8768a91.136 91.136 0 0 0-91.0464 91.0464V378.88c0 50.1888 40.832 91.0336 91.0464 91.0336z m-30.3488-273.1392a30.3744 30.3744 0 0 1 30.3488-30.3488h182.1056a30.3744 30.3744 0 0 1 30.3488 30.3488V378.88a30.3744 30.3744 0 0 1-30.3488 30.3488H620.8768a30.3872 30.3872 0 0 1-30.3616-30.3488l0.0128-182.1056z m0 0M711.9232 620.864a91.136 91.136 0 0 0-91.0464 91.0464 30.336 30.336 0 1 0 60.6976 0 30.3872 30.3872 0 0 1 30.3488-30.3488 30.336 30.336 0 1 0 0-60.6976z m0 0" fill="#f91538" p-id="3154"></path><path d="M928.064 885.1328l-67.7504-67.7504a181.248 181.248 0 0 0 33.7152-105.472c0-100.4032-81.6896-182.1056-182.1056-182.1056s-182.1056 81.7024-182.1056 182.1056c0 100.4288 81.6896 182.1056 182.1056 182.1056 39.2704 0 75.6736-12.48 105.4592-33.7024l67.7504 67.7504c11.8016 11.8016 31.1296 11.8016 42.9312 0s11.8016-31.1296 0-42.9312z m-337.536-173.2224c0-66.9312 54.4512-121.3952 121.3952-121.3952s121.3952 54.4768 121.3952 121.3952c0 66.944-54.4512 121.3952-121.3952 121.3952s-121.3952-54.4384-121.3952-121.3952z m0 0" fill="#f91538" p-id="3155"></path></svg>