<?xml version="1.0" standalone="no"?><!DOCTYPE svg PUBLIC "-//W3C//DTD SVG 1.1//EN" "http://www.w3.org/Graphics/SVG/1.1/DTD/svg11.dtd"><svg t="1618924068170" class="icon" viewBox="0 0 1024 1024" version="1.1" xmlns="http://www.w3.org/2000/svg" p-id="8830" xmlns:xlink="http://www.w3.org/1999/xlink" width="200" height="200"><defs><style type="text/css"></style></defs><path d="M412 680h496a20 20 0 0 1 0 40h-504a20 20 0 0 1-18.168-11.736 114.624 114.624 0 0 1-32.128-27.792 113.176 113.176 0 0 1-17.184-48.992 20 20 0 0 1-1.984-18.704 19.776 19.776 0 0 1-4.248-4.056L248.992 340 240 312c0-0.52 0.08-0.936 0.096-1.44L201.808 184H116a20 20 0 0 1 0-40h96a19.864 19.864 0 0 1 15.08 6.992 19.864 19.864 0 0 1 5.488 4.96l37.28 123.2c16.184-1.888 37.104 0.8 58.16 0.8h512a80 80 0 0 1 80 80V472a80 80 0 0 1-80 80L392 616a79.88 79.88 0 0 1-21.68-3.056 112.184 112.184 0 0 0 15.064 39.144A134.528 134.528 0 0 0 412 680zM392 784a40 40 0 1 1-40 40 40 40 0 0 1 40-40z m424 0a40 40 0 1 1-40 40 40 40 0 0 1 40-40z" fill="#FF495E" p-id="8831"></path></svg>